<?xml version="1.0" encoding="utf-8"?>
<!-- Generator: Adobe Illustrator 24.0.0, SVG Export Plug-In . SVG Version: 6.00 Build 0)  -->
<svg version="1.1" xmlns="http://www.w3.org/2000/svg" xmlns:xlink="http://www.w3.org/1999/xlink" x="0px" y="0px"
	 viewBox="0 0 1000 1000" style="enable-background:new 0 0 1000 1000;" xml:space="preserve">
<style type="text/css">
	.st0{display:none;fill:#6C0092;}
	.st1{fill:red;}
	.st2{fill:#FFFFFF;}
	.st3{clip-path:url(#SVGID_2_);}
</style>
<g id="Layer_2">
	<rect class="st0" width="1000" height="1000"/>
	<circle class="st1" cx="499.99" cy="499.98" r="499.98"/>
</g>
<g id="Layer_1">
	<g>
		<path class="st2" d="M499.99,17c65.21,0,128.46,12.77,187.99,37.95c57.51,24.33,109.17,59.15,153.53,103.51
			c44.36,44.36,79.19,96.02,103.51,153.53c25.18,59.53,37.95,122.78,37.95,187.99s-12.77,128.46-37.95,187.99
			c-24.33,57.51-59.15,109.17-103.51,153.53c-44.36,44.36-96.02,79.19-153.53,103.51c-59.53,25.18-122.78,37.95-187.99,37.95
			s-128.46-12.77-187.99-37.95c-57.51-24.33-109.17-59.15-153.53-103.51c-44.36-44.36-79.19-96.02-103.51-153.53
			C29.77,628.44,17,565.19,17,499.98s12.77-128.46,37.95-187.99c24.33-57.51,59.15-109.17,103.51-153.53
			c44.36-44.36,96.02-79.19,153.53-103.51C371.53,29.77,434.78,17,499.99,17 M499.99,0C223.85,0,0,223.85,0,499.98
			s223.85,499.98,499.98,499.98s499.98-223.85,499.98-499.98S776.12,0,499.99,0L499.99,0z"/>
	</g>
	<g>
		<defs>
			<circle id="SVGID_1_" cx="499.99" cy="499.98" r="499.98"/>
		</defs>
		<clipPath id="SVGID_2_">
			<use xlink:href="#SVGID_1_"  style="overflow:visible;"/>
		</clipPath>
		<g class="st3">
			<circle class="st2" cx="500" cy="891.12" r="338.88"/>
		</g>
	</g>
	<g>
		
			<ellipse transform="matrix(0.7071 -0.7071 0.7071 0.7071 -143.4671 473.6395)" class="st2" cx="500" cy="410" rx="189.12" ry="189.12"/>
		<path class="st1" d="M500,227.88c100.58,0,182.12,81.54,182.12,182.12S600.58,592.12,500,592.12S317.88,510.58,317.88,410
			S399.42,227.88,500,227.88 M500,213.88c-26.47,0-52.15,5.19-76.34,15.42c-23.36,9.88-44.33,24.02-62.33,42.02
			c-18.01,18.01-32.15,38.98-42.02,62.33c-10.23,24.19-15.42,49.87-15.42,76.34s5.19,52.15,15.42,76.34
			c9.88,23.36,24.02,44.33,42.02,62.33c18.01,18.01,38.98,32.15,62.33,42.02c24.19,10.23,49.87,15.42,76.34,15.42
			c26.47,0,52.15-5.19,76.34-15.42c23.36-9.88,44.33-24.02,62.33-42.02s32.15-38.98,42.02-62.33
			c10.23-24.19,15.42-49.87,15.42-76.34s-5.19-52.15-15.42-76.34c-9.88-23.36-24.02-44.33-42.02-62.33s-38.98-32.15-62.33-42.02
			C552.15,219.07,526.47,213.88,500,213.88L500,213.88z"/>
	</g>
</g>
</svg>
